<svg xmlns="http://www.w3.org/2000/svg" width="888.16" height="19.98" viewBox="0 0 888.16 19.98" fill="#fff" preserveAspectRatio="none"><path d="M888.16 12c-10.39.08-15.66-.13-16.5-.63-.39-.23-.57.12-.47.91.21 1.59-1.25 2.27-1.67.78-.31-1.12-2.82-1.41-4.23-.5-.38.24-.69.16-.69-.18s-.49-.15-1.08.42-.92 1.28-.76 1.57 0 .34-.38.12a1.32 1.32 0 0 1 0-2.31c.44-.18.32-.32-.3-.34s-1 .31-1 .71-.13.54-.44.09c-.68-1-4.39-1.33-4-.36.46 1.14-.41 1-1.9-.38-.72-.64-1.3-.94-1.29-.64s-.85.53-1.9.53c-3.74 0-5.19.28-4.82.85.2.32.09.59-.25.59a.57.57 0 0 1-.63-.51c0-.28-.67-.63-1.48-.77s-1.47 0-1.46.28-.3.36-.67.14a11 11 0 0 0-3.38-.48 17 17 0 0 1-3.88-.49c-2.19-.77-2.51-.78-3.19-.08-.52.54-.59.46-.31-.33s.09-1-.57-1-.93.52-.93 1.34c0 1-.12 1.12-.51.51a1.24 1.24 0 0 0-1.44-.45c-.63.26-.81.1-.58-.52s-.77-.84-7.66-.57c-4.39.17-8 .18-8 0 0-.63-13.58-.35-14.76.3-.66.37-1.37.46-1.58.18-.45-.59-2.8-.65-17.34-.47-6.1.07-11.24.37-11.42.65-.33.53-1 .49-3.51-.2-1-.28-1.29-.2-1 .28s.06.68-.49.69a.92.92 0 0 1-1-.72c0-.59-.11-.59-.34 0a1.13 1.13 0 0 1-.8.75c-.29 0-.38-.37-.22-.83.23-.62 0-.75-.9-.51-.67.19-1.21.64-1.21 1s-.26.27-.58-.21c-.49-.72-.59-.67-.59.31s-.09 1-.59.3-.65-.77-1.15 0c-.31.49-.57.62-.58.28s-.6-.64-1.3-.68a2.44 2.44 0 0 1-1.81-1c-.68-1.17-1.62-1.12-2.5.13-.65.91-.75.89-1.14-.28-.47-1.4-3-1.76-3.43-.49-.14.41-.43.57-.66.38s0-.81.56-1.36c1.44-1.5.61-1.71-1.13-.28-.85.68-1.54 1-1.55.74 0-.69-2.25-.77-2.66-.08-.18.3.26.54 1 .53 1.66 0 1.15.53-.84.93-1.14.22-1.44.09-1.21-.54s-.58-.93-3.7-1.24A40.06 40.06 0 0 0 729 8.6a27 27 0 0 1-7.45 0c-2.75-.29-3.65-.22-3.34.26s.1.54-.49.33-.92-.51-.92-.72c0-.63-6.64-.31-6.84.33-.1.33-1.56.56-3.24.51-1.91 0-3.22.19-3.5.64s-.45.42-.47-.3c0-.56-.35-1-.76-1.08a33 33 0 0 1-4-.63c-1.13-.2-2.85-.48-3.81-.62s-1.87-.55-2-.92-.36-.46-.61 0-1.17.46-3 .06a26.74 26.74 0 0 0-4.82-.51 4 4 0 0 1-2.55-.52c-.23-.36-.9-.22-1.75.36-1.82 1.24-2 1.2-2-.52s-1-1.94-1.46-.32a2.82 2.82 0 0 1-3.6 2.19c-1.29-.3-1.44-.49-.76-1s.54-.49-.33-.11a20.23 20.23 0 0 1-5.4.42c-3.61-.07-4.19 0-3.88.81.39 1-.06 1.07-1.83.34-.82-.34-.92-.51-.3-.58s.51-.25-.31-.58c-1.64-.68-2.79-.66-2.34 0 .2.31-.11.62-.69.67a29.14 29.14 0 0 1-8.18-.44 23.78 23.78 0 0 0-5.7-.33c-2 .12-3.7-.07-4.12-.47-.86-.83-5.26-1.54-4.77-.77.19.3.07.55-.27.56s-.62-.19-.63-.44-1.26-.37-2.79-.29l-6.19.37c-1.88.11-3.6-.06-3.82-.38-.79-1.13-2.47-1.28-5.08-.45-1.45.46-2.64.62-2.65.35s.59-.61 1.31-.76c1.15-.24.13-.36-5-.57a2.24 2.24 0 0 1-1.66-.94c-.59-.92-.76-1-3.54-1-1 0-1.76-.36-1.77-.83 0-.6-1.19-.75-4.9-.65s-4.88.33-4.87.89.36.62.79.44.78.1.79.7c0 .87.58 1 4.26.8 3.35-.17 4-.08 2.83.41a3.69 3.69 0 0 1-2.13.36 1.11 1.11 0 0 0-1 .06c-.51.53-5.65.87-5.66.38a2.4 2.4 0 0 1 .69-1.16c.75-.78.35-.9-2.48-.74-1.45.09-1.45.08-.15-.5 2.55-1.13 1.58-1.19-4.66-.25-2 .3-2.81.82-2.79 1.87a.77.77 0 0 1-.67.85c-.38 0-.51.18-.3.38s.72.08 1.14-.28a1.41 1.41 0 0 1 1.54-.18c1 .6.54.84-3.59 1.86-2.58.64-3.54.68-4.07.17s-.32-.7.88-.78c2.85-.17 3-.28 2.82-1.45-.28-1.49-.47-1.65-1.3-1.12-.52.33-.51.54 0 .86s.15.54-.82.74c-1.28.27-1.48.14-1.2-.78s.1-1-.58-.73c-.5.2-.76.6-.58.89.4.61.25.65-3.54.93-4.81.34-6.14.57-6.14 1 0 .26-.5.47-1.11.48s-1.21.25-1.31.54c-.28.78-5.16 1.56-5.17.83 0-.33.85-.72 1.89-.87l1.9-.27-1.9-.06a4.08 4.08 0 0 0-2.94 1c-.74.77-2.06 1.11-4.76 1.23-2.06.09-3.89.41-4.08.71-.45.75-5.25 1.34-5.65.7-.18-.28-.85-.22-1.48.13a3.27 3.27 0 0 1-2.16.36c-.55-.15-4.44-.38-8.63-.51-14.26-.44-15.84-.52-16.93-.93a1.24 1.24 0 0 0-1.6.43c-.38.62-.51.64-.53.07 0-.95-2.55-1.89-3-1.12-.22.36-1.19.35-2.64 0-2.49-.65-4.75-.77-4.18-.22a13.31 13.31 0 0 0 2.6 1.15c2.14.76 1.94.79-3.61.54-3.23-.15-6.26-.26-6.74-.25l-7.52.33a62.22 62.22 0 0 1-6.84.11c-.17-.17-9.74-.63-11.74-.57l-4.15.2a13.17 13.17 0 0 1-4.72-.45 2.17 2.17 0 0 0-2.11 0 3.26 3.26 0 0 1-2.57 0c-1.12-.4-1.82-.37-2.36.1a3.47 3.47 0 0 1-2.64.28c-1.26-.25-1.73-.17-1.46.24s-.34.53-1.83.35c-1.22-.15-3.41-.34-4.87-.41a15.87 15.87 0 0 1-3.82-.58c-1.06-.42-1.09-.37-.33.54s.61 1-2.92.81a24.48 24.48 0 0 1-5.42-.82c-2.11-.79-5.9-.77-5.38 0a.66.66 0 0 0 .91.25c.3-.19.55-.07.55.27 0 .58-3 1-4.38.66-1.7-.49-23.16.17-23.16.7 0 .37-.17.36-.44 0a1.94 1.94 0 0 0-1.32-.68c-12.1-.6-12.48-.6-12.94.16s-.68.59-1.59-.2c-1.38-1.22-6.93-1.25-9.68-.07-2 .87-11.42 1.14-13.75.41-.79-.25-1.33-.19-1.32.16s-1.06.5-2.49.4-11.47-.17-22.43-.15-23-.19-26.69-.48c-6.89-.52-23.76-.92-29-.69-1.61.07-15.86.45-31.65.83s-28.72.74-28.72.78a25.81 25.81 0 0 1-2.92.41 37.53 37.53 0 0 0-5 .91c-2.84.81-5.12.78-5.48-.09-.23-.54-.46-.5-.92.17s-.61.65-.63.15a.84.84 0 0 0-.93-.71c-.51 0-.75.27-.54.59s-1.93.62-6.08.69a39.7 39.7 0 0 0-7.91.69c-.82.33-1.6.4-1.76.16s-3.79-.33-8.08-.2-8.12 0-8.51-.3-.9-.2-1.34.52-.74.86-1 .34a.66.66 0 0 0-1-.3 26.1 26.1 0 0 1-5.8.58c-3.92.13-5.13 0-5.14-.62s-.7-.77-1.76-.75c-1.27 0-1.65.25-1.4.87s0 .82-.88.77a1.88 1.88 0 0 1-1.58-1.12c-.31-.92-.86-1-4.19-.71a13.53 13.53 0 0 1-5.83-.45c-2.22-.89-2.42-.78-1 .55.86.83.86.91 0 .92a1.46 1.46 0 0 1-1.28-.84c-.26-.64-1-.76-2.92-.5-2.09.28-2.58.17-2.6-.59s-.27-.79-1-.38c-1 .52-1.69.46-3.67-.28s-4.16-.64-4.49.26c-.21.58-.91.87-1.87.78a4.59 4.59 0 0 0-2.27.33 13.74 13.74 0 0 1-4.68.17 62.89 62.89 0 0 0-6.89-.11c-1.61.1-3.8.21-4.85.24-1.31 0-1.82.3-1.62.81s.05.75-.27.75-.59-.45-.63-1-.17-.73-.34-.28-.53.59-.83.41-.54 0-.53.47-.68.83-1.6.9-1.28 0-.88-.2a1.15 1.15 0 0 0 .72-.9c0-.36-1.43-.49-3.53-.34s-3.64 0-3.81-.32-.21-.19-.09.29.79.84 1.6.78c1.22-.09 1.27 0 .42.62-1.28 1-4.81.56-4-.46.44-.54 0-.75-1.61-.83l-4-.21A9.59 9.59 0 0 0 75 15a1.93 1.93 0 0 1-2.16-.36c-.65-.63-.93-.66-1.1-.12s-2 .81-5.45 1c-2.88.14-6.25.43-7.5.64-1.61.28-2.16.2-1.88-.27s-.28-.65-1.64-.63c-1.12 0-2.16.37-2.32.77s-.31.1-.35-.68-.23-1.25-.42-1-1 .12-1.82-.18-8.25-.55-16.52-.58-15.56-.13-16.21-.22a7.82 7.82 0 0 0-2.74.3 2.84 2.84 0 0 1-1.93.11c-.13-.12-5.25-.17-12.94-.14V20h888.14zM595.57 1.57a1.24 1.24 0 0 1-.91.6.57.57 0 0 1-.56-.58c0-.32.4-.59.91-.6s.75.25.56.58zm3.56 0c-.19-.29 0-.68.53-.88s.88-.11.88.18c.01.81-1.02 1.32-1.41.71zM1.4 17.7a1.17 1.17 0 0 1-1.12.07c-.47-.18-.34-.32.35-.36s.96.1.77.29zM3 15.56c1 0 1.19.34.39.85a.68.68 0 0 1-.92-.24c-.26-.32-.02-.6.53-.61zm1.1 2.13a2.28 2.28 0 0 1-1.46 0c-.41-.16-.08-.29.72-.31s1.09.14.69.31zm4.16.13c-.47 0-.71-.23-.53-.53a.67.67 0 0 0-.27-.91c-.33-.2-.6.07-.59.59 0 .85-.08.86-.87.09A3.47 3.47 0 0 1 5.05 16c0-.13.76-.28 1.69-.32 1.22-.05 1.79.25 2 1s.03 1.13-.53 1.14zm14.86-1.65a1.15 1.15 0 0 1-1.12.06c-.47-.17-.34-.32.35-.36s.91.13.72.3zm6.17 0a8.35 8.35 0 0 1-2.64 0c-.73-.13-.14-.25 1.32-.28s2.03.11 1.27.24zM54.4 20a.6.6 0 0 1-.63-.57c0-.32.11-.59.25-.59s.43.25.63.57.1.59-.25.59zm66.12-6.38a.58.58 0 0 1-.59-.58.57.57 0 0 1 .57-.59.58.58 0 0 1 .6.57.6.6 0 0 1-.58.58zm25 1.35a1.33 1.33 0 0 1-.94.6c-.33 0-.43-.26-.24-.58a1.31 1.31 0 0 1 .94-.61c.27-.02.38.24.19.62zM182 18.21a1.21 1.21 0 0 1-1.12.06c-.48-.18-.34-.32.34-.36s.98.09.78.3zm9.86.27a1 1 0 0 1-1.22-.21c-.19-.3.19-.56.86-.57 1.42-.03 1.57.3.37.78zm6.56-.5a4.73 4.73 0 0 1-2.05 0c-.56-.14-.1-.27 1-.29s1.63.14 1.06.31zm2.35.14c-.56 0-1-.24-1-.56 0-.72.05-.72 1.17 0 .74.44.72.54-.16.56zm178.89-5.91c-.32 0-.59-.11-.59-.25s.26-.42.58-.63.58-.09.59.25a.61.61 0 0 1-.57.63zM509.81 10a.59.59 0 1 1 0-1.17.57.57 0 0 1 .59.57.58.58 0 0 1-.59.6zm65-3.14c-.32.2-.58.11-.59-.21a1.28 1.28 0 0 1 .57-1c.32-.21.59-.11.59.21a1.28 1.28 0 0 1-.54 1.04zM586 6.13c-.32.2-.58.09-.59-.25a.6.6 0 0 1 .58-.63c.32 0 .59.1.59.25s-.29.42-.58.63zm1.43-3.61c-.09.67-3.82 1.17-3.83.52 0-1 .71-1.2 2.06-.71.76.27 1.48.31 1.61.08s.16-.18.13.11zm15.82.89c-.48.2-.87.13-.88-.15s.38-.66.87-.86.87-.12.88.16-.42.66-.9.85zm61.37 4.92c-.77.5-1.89-.18-1.47-.89a1.2 1.2 0 0 1 .85-.56c.79-.01 1.24 1.03.59 1.45zm2.93.25c-.33 0-.6-.11-.6-.25s.26-.42.58-.63.59-.09.59.25a.6.6 0 0 1-.6.63zm3.28.53c-.83 0-1.51-.17-1.51-.41 0-.82 1.1-2.27 1.13-1.49a.54.54 0 0 0 .67.58.86.86 0 0 1 .94.57c.15.46-.3.74-1.26.75zm11.7-.78c-.5 0-.92-.1-.92-.24 0-.62 1.11-.9 1.45-.36.18.32-.06.6-.56.6zm5.55 1.08a.59.59 0 0 1 0-1.17.59.59 0 1 1 0 1.17zm12.33 1a.59.59 0 0 1-.59-.58.57.57 0 0 1 .57-.59.59.59 0 0 1 .6.57.6.6 0 0 1-.61.57zm6.18 1.06c-.49 0-.89-.08-.89-.21s.39-.39.87-.58.88-.1.89.21-.46.55-.9.55zM718 13.31c-.32.2-.58.1-.59-.22a1.31 1.31 0 0 1 .57-1c.32-.2.59-.11.59.22a1.28 1.28 0 0 1-.57 1zm5.26-1.86c-.33.21-.6 0-.61-.53 0-1 .33-1.19.85-.39a.68.68 0 0 1-.22.92zm1.86.14c-.38.13-.7-.18-.71-.69a.92.92 0 0 1 .91-.94c1.06-.02.9 1.25-.18 1.63zm3.11-.29c-.48 0-.93-.17-1-.49-.15-.77 1.18-.92 3-.35 1.65.48 1.66.48-1.98.84zm48.06.8a1.55 1.55 0 0 1-2.22.12c-.15-.24.35-.48 1.13-.54s1.28.13 1.11.42zm65.07 5.69a2.31 2.31 0 0 1-1.47 0c-.4-.16-.07-.3.73-.31s1.16.14.76.31zm2.21.34c-.64-.16-1-.53-.86-.81.5-.84 2-.64 2 .27.05.53-.36.72-1.12.54zm2.7-.22a.93.93 0 0 1-1-.86c0-.49.09-.89.21-.89a3.16 3.16 0 0 1 1 .87c.63.71.59.87-.19.88zm6.51-3.5c-.39-.38-.58-.82-.41-1 .38-.4 1.09.28 1.1 1.07.03.37-.25.34-.67-.07zm3.71 3.59a1.09 1.09 0 0 1-1.29-.13c-.77-.75.2-1.37 1.21-.77.59.37.59.59.08.9zm-.4-2.77c-.15-.15.12-.61.61-1s.88-.52.89-.13c.01.7-1.09 1.55-1.5 1.15zm5.39.65a3.34 3.34 0 0 1-.94-.87c-.43-.5-.5-.87-.15-.87s.75.38.94.86.26.9.15.9zm1.52 1.75a.6.6 0 0 1-.63-.58c0-.32.11-.59.25-.59s.42.26.63.58.05.58-.25.59zm3.82.52a1.56 1.56 0 0 1-1.22-.56c-.2-.32.17-.59.84-.6s1.21.24 1.21.56-.41.6-.87.6zm2.65.55a1.29 1.29 0 0 1-.93-.58c-.2-.31 0-.58.55-.59s.91.25.92.57a.59.59 0 0 1-.58.6zm1.36-2.8a3.94 3.94 0 0 1-2.55-1.13c-.74-.93-.77-.9-.37.36.3.95.23 1.26-.22 1a1.79 1.79 0 0 1 .19-2.89 1.44 1.44 0 0 1 1.62.79c.41.63 1 1.14 1.39 1.13.36 0 .92-.61 1.25-1.34.57-1.25.6-1.22.51.43s-.32 1.75-1.86 1.65zm1.82 2.16c-.49 0-.89-.22-.89-.51s.38-.68.86-.88.88 0 .89.51a.88.88 0 0 1-.9.88zm2.23-3.51c.62 0 1 .09.78.29a1.17 1.17 0 0 1-1.12.07c-.54-.18-.38-.32.3-.36zm2.83 2.6c-.38-.23-.68-.13-.68.21s-.71.63-1.6.64c-1.15 0-1.38-.13-.81-.51a.89.89 0 0 0 .38-1.17c-.22-.35-.13-.65.21-.65a.63.63 0 0 1 .63.64c0 .35.4.49.87.3a1.08 1.08 0 0 1 1.27.3c.21.39.1.48-.31.24zm3.49-2.94c-1-.18-2-.09-2.15.2a1.73 1.73 0 0 1-1.44.47c-.62 0-1-.25-.88-.48s-.07-.52-.46-.65c-.44-.13-.49-.36-.13-.59a1.46 1.46 0 0 1 1.39.11 5 5 0 0 0 2.68.14c1.18-.21 2.06-.06 2.35.4s-.01.66-1.4.4zm2.27 2.49a.57.57 0 0 1-.59-.57.58.58 0 0 1 .57-.6.59.59 0 1 1 0 1.17z"/></svg>